REM DIRINDEX 1\2,1\3,1\4,1\6,1\5\7,1\5\8
REM DIRNAME folder01,folder02,folder03,folder04,folder05,folder06,folder07,folder08
TITLE ""
FILE "DB4500_5th_4B_23.mp3" MP3
  TRACK 01 AUDIO
    TITLE "0:"
    INDEX 01 00:00:00
  TRACK 02 AUDIO
    TITLE "6:cjc114_2433"
    INDEX 01 00:00:07
  TRACK 03 AUDIO
    TITLE "0:"
    INDEX 01 00:01:34
  TRACK 04 AUDIO
    TITLE "2:cjc114_2434"
    INDEX 01 00:02:10
  TRACK 05 AUDIO
    TITLE "0:"
    INDEX 01 00:03:12
  TRACK 06 AUDIO
    TITLE "3:cjc114_2435"
    INDEX 01 00:03:41
  TRACK 07 AUDIO
    TITLE "0:"
    INDEX 01 00:04:50
  TRACK 08 AUDIO
    TITLE "4:cjc114_2436"
    INDEX 01 00:05:03
  TRACK 09 AUDIO
    TITLE "0:"
    INDEX 01 00:08:17
  TRACK 10 AUDIO
    TITLE "2:cjc114_2437"
    INDEX 01 00:08:72
  TRACK 11 AUDIO
    TITLE "0:"
    INDEX 01 00:10:06
  TRACK 12 AUDIO
    TITLE "3:cjc114_2438"
    INDEX 01 00:10:33
  TRACK 13 AUDIO
    TITLE "0:"
    INDEX 01 00:11:42
  TRACK 14 AUDIO
    TITLE "4:cjc114_2439"
    INDEX 01 00:11:72
  TRACK 15 AUDIO
    TITLE "0:"
    INDEX 01 00:15:62
  TRACK 16 AUDIO
    TITLE "2:cjc114_2440"
    INDEX 01 00:16:42
  TRACK 17 AUDIO
    TITLE "0:"
    INDEX 01 00:17:41
  TRACK 18 AUDIO
    TITLE "3:cjc114_2441"
    INDEX 01 00:17:69
  TRACK 19 AUDIO
    TITLE "0:"
    INDEX 01 00:18:60
  TRACK 20 AUDIO
    TITLE "4:cjc114_2442"
    INDEX 01 00:19:15
  TRACK 21 AUDIO
    TITLE "0:"
    INDEX 01 00:22:15
  TRACK 22 AUDIO
    TITLE "2:cjc114_2443"
    INDEX 01 00:22:68
  TRACK 23 AUDIO
    TITLE "0:"
    INDEX 01 00:24:04
  TRACK 24 AUDIO
    TITLE "3:cjc114_2444"
    INDEX 01 00:24:33
  TRACK 25 AUDIO
    TITLE "0:"
    INDEX 01 00:25:29
  TRACK 26 AUDIO
    TITLE "4:cjc114_2445"
    INDEX 01 00:25:56
  TRACK 27 AUDIO
    TITLE "0:"
    INDEX 01 00:30:16
  TRACK 28 AUDIO
    TITLE "2:cjc114_2446"
    INDEX 01 00:30:71
  TRACK 29 AUDIO
    TITLE "0:"
    INDEX 01 00:32:03
  TRACK 30 AUDIO
    TITLE "3:cjc114_2447"
    INDEX 01 00:32:31
  TRACK 31 AUDIO
    TITLE "0:"
    INDEX 01 00:33:44
  TRACK 32 AUDIO
    TITLE "4:cjc114_2448"
    INDEX 01 00:33:73
  TRACK 33 AUDIO
    TITLE "0:"
    INDEX 01 00:37:28
  TRACK 34 AUDIO
    TITLE "2:cjc114_2449"
    INDEX 01 00:38:06
  TRACK 35 AUDIO
    TITLE "0:"
    INDEX 01 00:39:17
  TRACK 36 AUDIO
    TITLE "3:cjc114_2450"
    INDEX 01 00:39:43
  TRACK 37 AUDIO
    TITLE "0:"
    INDEX 01 00:40:60
  TRACK 38 AUDIO
    TITLE "4:cjc114_2451"
    INDEX 01 00:41:14
  TRACK 39 AUDIO
    TITLE "0:"
    INDEX 01 00:43:74
  TRACK 40 AUDIO
    TITLE "2:cjc114_2452"
    INDEX 01 00:44:60
  TRACK 41 AUDIO
    TITLE "0:"
    INDEX 01 00:45:61
  TRACK 42 AUDIO
    TITLE "3:cjc114_2453"
    INDEX 01 00:46:11
  TRACK 43 AUDIO
    TITLE "0:"
    INDEX 01 00:47:07
  TRACK 44 AUDIO
    TITLE "4:cjc114_2454"
    INDEX 01 00:47:27
  TRACK 45 AUDIO
    TITLE "0:"
    INDEX 01 00:50:05
  TRACK 46 AUDIO
    TITLE "2:cjc114_2455"
    INDEX 01 00:50:52
  TRACK 47 AUDIO
    TITLE "0:"
    INDEX 01 00:51:62
  TRACK 48 AUDIO
    TITLE "3:cjc114_2456"
    INDEX 01 00:52:08
  TRACK 49 AUDIO
    TITLE "0:"
    INDEX 01 00:53:25
  TRACK 50 AUDIO
    TITLE "4:cjc114_2457"
    INDEX 01 00:53:51
  TRACK 51 AUDIO
    TITLE "0:"
    INDEX 01 00:56:65
  TRACK 52 AUDIO
    TITLE "2:cjc114_2458"
    INDEX 01 00:57:35
  TRACK 53 AUDIO
    TITLE "0:"
    INDEX 01 00:58:36
  TRACK 54 AUDIO
    TITLE "3:cjc114_2459"
    INDEX 01 00:58:60
  TRACK 55 AUDIO
    TITLE "0:"
    INDEX 01 01:00:08
  TRACK 56 AUDIO
    TITLE "4:cjc114_2460"
    INDEX 01 01:00:29
  TRACK 57 AUDIO
    TITLE "0:"
    INDEX 01 01:03:27
  TRACK 58 AUDIO
    TITLE "2:cjc114_2461"
    INDEX 01 01:03:71
  TRACK 59 AUDIO
    TITLE "0:"
    INDEX 01 01:05:03
  TRACK 60 AUDIO
    TITLE "3:cjc114_2462"
    INDEX 01 01:05:28
  TRACK 61 AUDIO
    TITLE "0:"
    INDEX 01 01:06:42
  TRACK 62 AUDIO
    TITLE "4:cjc114_2463"
    INDEX 01 01:06:59
  TRACK 63 AUDIO
    TITLE "0:"
    INDEX 01 01:11:31
  TRACK 64 AUDIO
    TITLE "2:cjc114_2464"
    INDEX 01 01:12:03
  TRACK 65 AUDIO
    TITLE "0:"
    INDEX 01 01:13:22
  TRACK 66 AUDIO
    TITLE "3:cjc114_2465"
    INDEX 01 01:13:44
  TRACK 67 AUDIO
    TITLE "0:"
    INDEX 01 01:14:47
  TRACK 68 AUDIO
    TITLE "4:cjc114_2466"
    INDEX 01 01:14:66
  TRACK 69 AUDIO
    TITLE "0:"
    INDEX 01 01:18:56
